<?xml version="1.0" standalone="no"?><!DOCTYPE svg PUBLIC "-//W3C//DTD SVG 1.1//EN" "http://www.w3.org/Graphics/SVG/1.1/DTD/svg11.dtd"><svg t="1609168370318" class="icon" viewBox="0 0 1024 1024" version="1.1" xmlns="http://www.w3.org/2000/svg" p-id="6754" xmlns:xlink="http://www.w3.org/1999/xlink" width="200" height="200"><defs><style type="text/css"></style></defs><path d="M590.262857 512l357.449143-357.376a46.738286 46.738286 0 0 0 0-65.828571l-1.974857-1.974858a46.738286 46.738286 0 0 0-65.828572 0L522.532571 444.708571 165.156571 86.674286a46.738286 46.738286 0 0 0-65.828571 0l-1.901714 1.974857a45.933714 45.933714 0 0 0 0 65.828571L454.802286 512l-357.376 357.376a46.738286 46.738286 0 0 0 0 65.828571l1.901714 1.901715a46.738286 46.738286 0 0 0 65.828571 0l357.376-357.376 357.376 357.376a46.738286 46.738286 0 0 0 65.828572 0l1.974857-1.974857a46.738286 46.738286 0 0 0 0-65.755429L590.262857 512z" p-id="6755"></path></svg>