<?xml version="1.0" standalone="no"?><!DOCTYPE svg PUBLIC "-//W3C//DTD SVG 1.1//EN" "http://www.w3.org/Graphics/SVG/1.1/DTD/svg11.dtd"><svg t="1609168445894" class="icon" viewBox="0 0 1137 1024" version="1.1" xmlns="http://www.w3.org/2000/svg" p-id="11520" xmlns:xlink="http://www.w3.org/1999/xlink" width="222.0703125" height="200"><defs><style type="text/css"></style></defs><path d="M961.40967 1023.996018H176.637694a185.455357 185.455357 0 0 1-116.051818-39.821702A158.717928 158.717928 0 0 1 0 860.442598V163.278366a155.304639 155.304639 0 0 1 53.759298-117.474022A184.602034 184.602034 0 0 1 176.353253 0.009387h785.056417a182.042068 182.042068 0 0 1 122.593956 45.794957A157.864606 157.864606 0 0 1 1137.762924 163.562807v697.448672a155.58908 155.58908 0 0 1-54.043739 117.474022 184.602034 184.602034 0 0 1-122.309515 45.510517zM176.353253 113.785679a69.403538 69.403538 0 0 0-46.363839 16.497562A44.372754 44.372754 0 0 0 113.776292 162.709485v698.301994a44.941635 44.941635 0 0 0 18.488648 34.701769 72.247946 72.247946 0 0 0 44.372754 14.506477H961.40967a70.541301 70.541301 0 0 0 46.36384-16.213121 44.657195 44.657195 0 0 0 16.213121-32.426244V163.278366a44.088313 44.088313 0 0 0-15.928681-32.710684A69.687979 69.687979 0 0 0 961.12523 113.785679z" fill="#333333" p-id="11521"></path><path d="M1050.155179 342.760467H85.332219V208.220002C85.332219 133.980971 115.198496 73.963977 153.029113 73.963977h828.575849c37.830617 0 68.550216 60.016994 68.550217 134.256025z" fill="#333333" p-id="11522"></path></svg>